<?xml version="1.0" encoding="UTF-8"?>
<svg id="Layer_2" data-name="Layer 2" xmlns="http://www.w3.org/2000/svg" xmlns:xlink="http://www.w3.org/1999/xlink" viewBox="0 0 259 1206">
  <defs>
    <style>
      .cls-1 {
        fill: #2e3192;
      }

      .cls-1, .cls-2, .cls-3, .cls-4 {
        stroke-width: 0px;
      }

      .cls-2 {
        fill: #0071bc;
      }

      .cls-3 {
        fill: #f2f2f2;
      }

      .cls-4 {
        fill: none;
      }

      .cls-5 {
        clip-path: url(#clippath);
      }
    </style>
    <clipPath id="clippath">
      <rect class="cls-4" x="63.24" y="196.86" width="179.93" height="1009.15"/>
    </clipPath>
  </defs>
  <g id="Stain">
    <g>
      <rect class="cls-1" y="117" width="57.46" height="1089" transform="translate(57.46 1323) rotate(180)"/>
      <rect class="cls-1" x="24.47" y="45" width="38.52" height="120.03" transform="translate(87.47 210.03) rotate(180)"/>
      <rect class="cls-1" x="72.47" y="81" width="62.52" height="90" transform="translate(207.47 252) rotate(180)"/>
      <rect class="cls-1" x="117.47" y="126" width="107.52" height="54" transform="translate(342.47 306) rotate(180)"/>
      <rect class="cls-1" x="63" width="45" height="171" transform="translate(170.99 171) rotate(180)"/>
      <rect class="cls-2" x="56.63" y="161.71" width="202.37" height="1044.29" transform="translate(315.63 1367.72) rotate(180)"/>
      <g class="cls-5">
        <g>
          <g id="_Grid_Repeat_" data-name="&amp;lt;Grid Repeat&amp;gt;">
            <rect class="cls-3" x="234.05" y="1201.06" width="4.48" height="10.42" transform="translate(472.58 2412.55) rotate(180)"/>
          </g>
          <g id="_Grid_Repeat_-2" data-name="&amp;lt;Grid Repeat&amp;gt;">
            <rect class="cls-3" x="198.03" y="1201.06" width="4.48" height="10.42" transform="translate(400.55 2412.55) rotate(180)"/>
          </g>
          <g id="_Grid_Repeat_-3" data-name="&amp;lt;Grid Repeat&amp;gt;">
            <rect class="cls-3" x="162.02" y="1201.06" width="4.48" height="10.42" transform="translate(328.51 2412.55) rotate(180)"/>
          </g>
          <g id="_Grid_Repeat_-4" data-name="&amp;lt;Grid Repeat&amp;gt;">
            <rect class="cls-3" x="126" y="1201.06" width="4.48" height="10.42" transform="translate(256.47 2412.55) rotate(180)"/>
          </g>
          <g id="_Grid_Repeat_-5" data-name="&amp;lt;Grid Repeat&amp;gt;">
            <rect class="cls-3" x="89.98" y="1201.06" width="4.48" height="10.42" transform="translate(184.44 2412.55) rotate(180)"/>
          </g>
          <g id="_Grid_Repeat_-6" data-name="&amp;lt;Grid Repeat&amp;gt;">
            <rect class="cls-3" x="234.05" y="1151.81" width="4.48" height="10.42" transform="translate(472.58 2314.04) rotate(180)"/>
          </g>
          <g id="_Grid_Repeat_-7" data-name="&amp;lt;Grid Repeat&amp;gt;">
            <rect class="cls-3" x="198.03" y="1151.81" width="4.48" height="10.42" transform="translate(400.55 2314.04) rotate(180)"/>
          </g>
          <g id="_Grid_Repeat_-8" data-name="&amp;lt;Grid Repeat&amp;gt;">
            <rect class="cls-3" x="162.02" y="1151.81" width="4.48" height="10.42" transform="translate(328.51 2314.04) rotate(180)"/>
          </g>
          <g id="_Grid_Repeat_-9" data-name="&amp;lt;Grid Repeat&amp;gt;">
            <rect class="cls-3" x="126" y="1151.81" width="4.48" height="10.42" transform="translate(256.47 2314.04) rotate(180)"/>
          </g>
          <g id="_Grid_Repeat_-10" data-name="&amp;lt;Grid Repeat&amp;gt;">
            <rect class="cls-3" x="89.98" y="1151.81" width="4.48" height="10.42" transform="translate(184.44 2314.04) rotate(180)"/>
          </g>
          <g id="_Grid_Repeat_-11" data-name="&amp;lt;Grid Repeat&amp;gt;">
            <rect class="cls-3" x="234.05" y="1102.56" width="4.48" height="10.42" transform="translate(472.58 2215.53) rotate(180)"/>
          </g>
          <g id="_Grid_Repeat_-12" data-name="&amp;lt;Grid Repeat&amp;gt;">
            <rect class="cls-3" x="198.03" y="1102.56" width="4.48" height="10.42" transform="translate(400.55 2215.53) rotate(180)"/>
          </g>
          <g id="_Grid_Repeat_-13" data-name="&amp;lt;Grid Repeat&amp;gt;">
            <rect class="cls-3" x="162.02" y="1102.56" width="4.48" height="10.42" transform="translate(328.51 2215.53) rotate(180)"/>
          </g>
          <g id="_Grid_Repeat_-14" data-name="&amp;lt;Grid Repeat&amp;gt;">
            <rect class="cls-3" x="126" y="1102.56" width="4.48" height="10.42" transform="translate(256.47 2215.53) rotate(180)"/>
          </g>
          <g id="_Grid_Repeat_-15" data-name="&amp;lt;Grid Repeat&amp;gt;">
            <rect class="cls-3" x="89.98" y="1102.56" width="4.48" height="10.42" transform="translate(184.44 2215.53) rotate(180)"/>
          </g>
          <g id="_Grid_Repeat_-16" data-name="&amp;lt;Grid Repeat&amp;gt;">
            <rect class="cls-3" x="234.05" y="1053.3" width="4.48" height="10.42" transform="translate(472.58 2117.03) rotate(180)"/>
          </g>
          <g id="_Grid_Repeat_-17" data-name="&amp;lt;Grid Repeat&amp;gt;">
            <rect class="cls-3" x="198.03" y="1053.3" width="4.48" height="10.42" transform="translate(400.55 2117.03) rotate(180)"/>
          </g>
          <g id="_Grid_Repeat_-18" data-name="&amp;lt;Grid Repeat&amp;gt;">
            <rect class="cls-3" x="162.02" y="1053.3" width="4.48" height="10.42" transform="translate(328.51 2117.03) rotate(180)"/>
          </g>
          <g id="_Grid_Repeat_-19" data-name="&amp;lt;Grid Repeat&amp;gt;">
            <rect class="cls-3" x="126" y="1053.3" width="4.48" height="10.42" transform="translate(256.47 2117.03) rotate(180)"/>
          </g>
          <g id="_Grid_Repeat_-20" data-name="&amp;lt;Grid Repeat&amp;gt;">
            <rect class="cls-3" x="89.98" y="1053.3" width="4.48" height="10.42" transform="translate(184.44 2117.03) rotate(180)"/>
          </g>
          <g id="_Grid_Repeat_-21" data-name="&amp;lt;Grid Repeat&amp;gt;">
            <rect class="cls-3" x="234.05" y="1004.05" width="4.48" height="10.42" transform="translate(472.58 2018.52) rotate(180)"/>
          </g>
          <g id="_Grid_Repeat_-22" data-name="&amp;lt;Grid Repeat&amp;gt;">
            <rect class="cls-3" x="198.03" y="1004.05" width="4.48" height="10.42" transform="translate(400.55 2018.52) rotate(180)"/>
          </g>
          <g id="_Grid_Repeat_-23" data-name="&amp;lt;Grid Repeat&amp;gt;">
            <rect class="cls-3" x="162.02" y="1004.05" width="4.48" height="10.42" transform="translate(328.51 2018.52) rotate(180)"/>
          </g>
          <g id="_Grid_Repeat_-24" data-name="&amp;lt;Grid Repeat&amp;gt;">
            <rect class="cls-3" x="126" y="1004.05" width="4.48" height="10.42" transform="translate(256.47 2018.52) rotate(180)"/>
          </g>
          <g id="_Grid_Repeat_-25" data-name="&amp;lt;Grid Repeat&amp;gt;">
            <rect class="cls-3" x="89.98" y="1004.05" width="4.48" height="10.42" transform="translate(184.44 2018.52) rotate(180)"/>
          </g>
          <g id="_Grid_Repeat_-26" data-name="&amp;lt;Grid Repeat&amp;gt;">
            <rect class="cls-3" x="234.05" y="954.8" width="4.48" height="10.42" transform="translate(472.58 1920.01) rotate(180)"/>
          </g>
          <g id="_Grid_Repeat_-27" data-name="&amp;lt;Grid Repeat&amp;gt;">
            <rect class="cls-3" x="198.03" y="954.8" width="4.48" height="10.42" transform="translate(400.55 1920.01) rotate(180)"/>
          </g>
          <g id="_Grid_Repeat_-28" data-name="&amp;lt;Grid Repeat&amp;gt;">
            <rect class="cls-3" x="162.02" y="954.8" width="4.48" height="10.42" transform="translate(328.51 1920.01) rotate(180)"/>
          </g>
          <g id="_Grid_Repeat_-29" data-name="&amp;lt;Grid Repeat&amp;gt;">
            <rect class="cls-3" x="126" y="954.8" width="4.48" height="10.42" transform="translate(256.47 1920.01) rotate(180)"/>
          </g>
          <g id="_Grid_Repeat_-30" data-name="&amp;lt;Grid Repeat&amp;gt;">
            <rect class="cls-3" x="89.98" y="954.8" width="4.48" height="10.42" transform="translate(184.44 1920.01) rotate(180)"/>
          </g>
          <g id="_Grid_Repeat_-31" data-name="&amp;lt;Grid Repeat&amp;gt;">
            <rect class="cls-3" x="234.05" y="905.54" width="4.48" height="10.42" transform="translate(472.58 1821.51) rotate(180)"/>
          </g>
          <g id="_Grid_Repeat_-32" data-name="&amp;lt;Grid Repeat&amp;gt;">
            <rect class="cls-3" x="198.03" y="905.54" width="4.48" height="10.42" transform="translate(400.55 1821.51) rotate(180)"/>
          </g>
          <g id="_Grid_Repeat_-33" data-name="&amp;lt;Grid Repeat&amp;gt;">
            <rect class="cls-3" x="162.02" y="905.54" width="4.48" height="10.42" transform="translate(328.51 1821.51) rotate(180)"/>
          </g>
          <g id="_Grid_Repeat_-34" data-name="&amp;lt;Grid Repeat&amp;gt;">
            <rect class="cls-3" x="126" y="905.54" width="4.48" height="10.42" transform="translate(256.47 1821.51) rotate(180)"/>
          </g>
          <g id="_Grid_Repeat_-35" data-name="&amp;lt;Grid Repeat&amp;gt;">
            <rect class="cls-3" x="89.98" y="905.54" width="4.48" height="10.42" transform="translate(184.44 1821.51) rotate(180)"/>
          </g>
          <g id="_Grid_Repeat_-36" data-name="&amp;lt;Grid Repeat&amp;gt;">
            <rect class="cls-3" x="234.05" y="856.29" width="4.48" height="10.42" transform="translate(472.58 1723) rotate(180)"/>
          </g>
          <g id="_Grid_Repeat_-37" data-name="&amp;lt;Grid Repeat&amp;gt;">
            <rect class="cls-3" x="198.03" y="856.29" width="4.48" height="10.42" transform="translate(400.55 1723) rotate(180)"/>
          </g>
          <g id="_Grid_Repeat_-38" data-name="&amp;lt;Grid Repeat&amp;gt;">
            <rect class="cls-3" x="162.02" y="856.29" width="4.48" height="10.42" transform="translate(328.51 1723) rotate(180)"/>
          </g>
          <g id="_Grid_Repeat_-39" data-name="&amp;lt;Grid Repeat&amp;gt;">
            <rect class="cls-3" x="126" y="856.29" width="4.48" height="10.42" transform="translate(256.47 1723) rotate(180)"/>
          </g>
          <g id="_Grid_Repeat_-40" data-name="&amp;lt;Grid Repeat&amp;gt;">
            <rect class="cls-3" x="89.98" y="856.29" width="4.48" height="10.42" transform="translate(184.44 1723) rotate(180)"/>
          </g>
          <g id="_Grid_Repeat_-41" data-name="&amp;lt;Grid Repeat&amp;gt;">
            <rect class="cls-3" x="234.05" y="807.04" width="4.48" height="10.42" transform="translate(472.58 1624.5) rotate(180)"/>
          </g>
          <g id="_Grid_Repeat_-42" data-name="&amp;lt;Grid Repeat&amp;gt;">
            <rect class="cls-3" x="198.03" y="807.04" width="4.48" height="10.42" transform="translate(400.55 1624.5) rotate(180)"/>
          </g>
          <g id="_Grid_Repeat_-43" data-name="&amp;lt;Grid Repeat&amp;gt;">
            <rect class="cls-3" x="162.02" y="807.04" width="4.48" height="10.42" transform="translate(328.51 1624.5) rotate(180)"/>
          </g>
          <g id="_Grid_Repeat_-44" data-name="&amp;lt;Grid Repeat&amp;gt;">
            <rect class="cls-3" x="126" y="807.04" width="4.48" height="10.42" transform="translate(256.47 1624.5) rotate(180)"/>
          </g>
          <g id="_Grid_Repeat_-45" data-name="&amp;lt;Grid Repeat&amp;gt;">
            <rect class="cls-3" x="89.98" y="807.04" width="4.48" height="10.42" transform="translate(184.44 1624.5) rotate(180)"/>
          </g>
          <g id="_Grid_Repeat_-46" data-name="&amp;lt;Grid Repeat&amp;gt;">
            <rect class="cls-3" x="234.05" y="757.78" width="4.48" height="10.42" transform="translate(472.58 1525.99) rotate(180)"/>
          </g>
          <g id="_Grid_Repeat_-47" data-name="&amp;lt;Grid Repeat&amp;gt;">
            <rect class="cls-3" x="198.03" y="757.78" width="4.48" height="10.42" transform="translate(400.55 1525.99) rotate(180)"/>
          </g>
          <g id="_Grid_Repeat_-48" data-name="&amp;lt;Grid Repeat&amp;gt;">
            <rect class="cls-3" x="162.02" y="757.78" width="4.48" height="10.42" transform="translate(328.51 1525.99) rotate(180)"/>
          </g>
          <g id="_Grid_Repeat_-49" data-name="&amp;lt;Grid Repeat&amp;gt;">
            <rect class="cls-3" x="126" y="757.78" width="4.48" height="10.42" transform="translate(256.47 1525.99) rotate(180)"/>
          </g>
          <g id="_Grid_Repeat_-50" data-name="&amp;lt;Grid Repeat&amp;gt;">
            <rect class="cls-3" x="89.98" y="757.78" width="4.48" height="10.42" transform="translate(184.44 1525.99) rotate(180)"/>
          </g>
          <g id="_Grid_Repeat_-51" data-name="&amp;lt;Grid Repeat&amp;gt;">
            <rect class="cls-3" x="234.05" y="708.53" width="4.48" height="10.42" transform="translate(472.58 1427.48) rotate(180)"/>
          </g>
          <g id="_Grid_Repeat_-52" data-name="&amp;lt;Grid Repeat&amp;gt;">
            <rect class="cls-3" x="198.03" y="708.53" width="4.48" height="10.42" transform="translate(400.55 1427.48) rotate(180)"/>
          </g>
          <g id="_Grid_Repeat_-53" data-name="&amp;lt;Grid Repeat&amp;gt;">
            <rect class="cls-3" x="162.02" y="708.53" width="4.48" height="10.42" transform="translate(328.51 1427.48) rotate(180)"/>
          </g>
          <g id="_Grid_Repeat_-54" data-name="&amp;lt;Grid Repeat&amp;gt;">
            <rect class="cls-3" x="126" y="708.53" width="4.48" height="10.42" transform="translate(256.47 1427.48) rotate(180)"/>
          </g>
          <g id="_Grid_Repeat_-55" data-name="&amp;lt;Grid Repeat&amp;gt;">
            <rect class="cls-3" x="89.98" y="708.53" width="4.48" height="10.42" transform="translate(184.44 1427.48) rotate(180)"/>
          </g>
          <g id="_Grid_Repeat_-56" data-name="&amp;lt;Grid Repeat&amp;gt;">
            <rect class="cls-3" x="234.05" y="659.28" width="4.48" height="10.42" transform="translate(472.58 1328.98) rotate(180)"/>
          </g>
          <g id="_Grid_Repeat_-57" data-name="&amp;lt;Grid Repeat&amp;gt;">
            <rect class="cls-3" x="198.03" y="659.28" width="4.48" height="10.42" transform="translate(400.55 1328.98) rotate(180)"/>
          </g>
          <g id="_Grid_Repeat_-58" data-name="&amp;lt;Grid Repeat&amp;gt;">
            <rect class="cls-3" x="162.02" y="659.28" width="4.48" height="10.42" transform="translate(328.51 1328.98) rotate(180)"/>
          </g>
          <g id="_Grid_Repeat_-59" data-name="&amp;lt;Grid Repeat&amp;gt;">
            <rect class="cls-3" x="126" y="659.28" width="4.48" height="10.42" transform="translate(256.47 1328.98) rotate(180)"/>
          </g>
          <g id="_Grid_Repeat_-60" data-name="&amp;lt;Grid Repeat&amp;gt;">
            <rect class="cls-3" x="89.98" y="659.28" width="4.48" height="10.42" transform="translate(184.44 1328.98) rotate(180)"/>
          </g>
          <g id="_Grid_Repeat_-61" data-name="&amp;lt;Grid Repeat&amp;gt;">
            <rect class="cls-3" x="234.05" y="610.02" width="4.48" height="10.42" transform="translate(472.58 1230.47) rotate(180)"/>
          </g>
          <g id="_Grid_Repeat_-62" data-name="&amp;lt;Grid Repeat&amp;gt;">
            <rect class="cls-3" x="198.03" y="610.02" width="4.48" height="10.42" transform="translate(400.55 1230.47) rotate(180)"/>
          </g>
          <g id="_Grid_Repeat_-63" data-name="&amp;lt;Grid Repeat&amp;gt;">
            <rect class="cls-3" x="162.02" y="610.02" width="4.48" height="10.42" transform="translate(328.51 1230.47) rotate(180)"/>
          </g>
          <g id="_Grid_Repeat_-64" data-name="&amp;lt;Grid Repeat&amp;gt;">
            <rect class="cls-3" x="126" y="610.02" width="4.48" height="10.42" transform="translate(256.47 1230.47) rotate(180)"/>
          </g>
          <g id="_Grid_Repeat_-65" data-name="&amp;lt;Grid Repeat&amp;gt;">
            <rect class="cls-3" x="89.98" y="610.02" width="4.48" height="10.42" transform="translate(184.44 1230.47) rotate(180)"/>
          </g>
          <g id="_Grid_Repeat_-66" data-name="&amp;lt;Grid Repeat&amp;gt;">
            <rect class="cls-3" x="234.05" y="560.77" width="4.48" height="10.42" transform="translate(472.58 1131.97) rotate(180)"/>
          </g>
          <g id="_Grid_Repeat_-67" data-name="&amp;lt;Grid Repeat&amp;gt;">
            <rect class="cls-3" x="198.03" y="560.77" width="4.48" height="10.42" transform="translate(400.55 1131.97) rotate(180)"/>
          </g>
          <g id="_Grid_Repeat_-68" data-name="&amp;lt;Grid Repeat&amp;gt;">
            <rect class="cls-3" x="162.02" y="560.77" width="4.48" height="10.42" transform="translate(328.51 1131.97) rotate(180)"/>
          </g>
          <g id="_Grid_Repeat_-69" data-name="&amp;lt;Grid Repeat&amp;gt;">
            <rect class="cls-3" x="126" y="560.77" width="4.48" height="10.42" transform="translate(256.47 1131.97) rotate(180)"/>
          </g>
          <g id="_Grid_Repeat_-70" data-name="&amp;lt;Grid Repeat&amp;gt;">
            <rect class="cls-3" x="89.98" y="560.77" width="4.48" height="10.42" transform="translate(184.44 1131.97) rotate(180)"/>
          </g>
          <g id="_Grid_Repeat_-71" data-name="&amp;lt;Grid Repeat&amp;gt;">
            <rect class="cls-3" x="234.05" y="511.52" width="4.48" height="10.42" transform="translate(472.58 1033.46) rotate(180)"/>
          </g>
          <g id="_Grid_Repeat_-72" data-name="&amp;lt;Grid Repeat&amp;gt;">
            <rect class="cls-3" x="198.03" y="511.52" width="4.48" height="10.42" transform="translate(400.55 1033.46) rotate(180)"/>
          </g>
          <g id="_Grid_Repeat_-73" data-name="&amp;lt;Grid Repeat&amp;gt;">
            <rect class="cls-3" x="162.02" y="511.52" width="4.48" height="10.42" transform="translate(328.51 1033.46) rotate(180)"/>
          </g>
          <g id="_Grid_Repeat_-74" data-name="&amp;lt;Grid Repeat&amp;gt;">
            <rect class="cls-3" x="126" y="511.52" width="4.48" height="10.42" transform="translate(256.47 1033.46) rotate(180)"/>
          </g>
          <g id="_Grid_Repeat_-75" data-name="&amp;lt;Grid Repeat&amp;gt;">
            <rect class="cls-3" x="89.98" y="511.52" width="4.48" height="10.42" transform="translate(184.44 1033.46) rotate(180)"/>
          </g>
          <g id="_Grid_Repeat_-76" data-name="&amp;lt;Grid Repeat&amp;gt;">
            <rect class="cls-3" x="234.05" y="462.27" width="4.48" height="10.42" transform="translate(472.58 934.95) rotate(180)"/>
          </g>
          <g id="_Grid_Repeat_-77" data-name="&amp;lt;Grid Repeat&amp;gt;">
            <rect class="cls-3" x="198.03" y="462.27" width="4.48" height="10.42" transform="translate(400.55 934.95) rotate(180)"/>
          </g>
          <g id="_Grid_Repeat_-78" data-name="&amp;lt;Grid Repeat&amp;gt;">
            <rect class="cls-3" x="162.02" y="462.27" width="4.48" height="10.42" transform="translate(328.51 934.95) rotate(180)"/>
          </g>
          <g id="_Grid_Repeat_-79" data-name="&amp;lt;Grid Repeat&amp;gt;">
            <rect class="cls-3" x="126" y="462.27" width="4.48" height="10.42" transform="translate(256.47 934.95) rotate(180)"/>
          </g>
          <g id="_Grid_Repeat_-80" data-name="&amp;lt;Grid Repeat&amp;gt;">
            <rect class="cls-3" x="89.98" y="462.27" width="4.48" height="10.42" transform="translate(184.44 934.95) rotate(180)"/>
          </g>
          <g id="_Grid_Repeat_-81" data-name="&amp;lt;Grid Repeat&amp;gt;">
            <rect class="cls-3" x="234.05" y="413.01" width="4.48" height="10.42" transform="translate(472.58 836.45) rotate(180)"/>
          </g>
          <g id="_Grid_Repeat_-82" data-name="&amp;lt;Grid Repeat&amp;gt;">
            <rect class="cls-3" x="198.03" y="413.01" width="4.48" height="10.42" transform="translate(400.55 836.45) rotate(180)"/>
          </g>
          <g id="_Grid_Repeat_-83" data-name="&amp;lt;Grid Repeat&amp;gt;">
            <rect class="cls-3" x="162.02" y="413.01" width="4.48" height="10.42" transform="translate(328.51 836.45) rotate(180)"/>
          </g>
          <g id="_Grid_Repeat_-84" data-name="&amp;lt;Grid Repeat&amp;gt;">
            <rect class="cls-3" x="126" y="413.01" width="4.48" height="10.42" transform="translate(256.47 836.45) rotate(180)"/>
          </g>
          <g id="_Grid_Repeat_-85" data-name="&amp;lt;Grid Repeat&amp;gt;">
            <rect class="cls-3" x="89.98" y="413.01" width="4.48" height="10.42" transform="translate(184.44 836.45) rotate(180)"/>
          </g>
          <g id="_Grid_Repeat_-86" data-name="&amp;lt;Grid Repeat&amp;gt;">
            <rect class="cls-3" x="234.05" y="363.76" width="4.48" height="10.42" transform="translate(472.58 737.94) rotate(180)"/>
          </g>
          <g id="_Grid_Repeat_-87" data-name="&amp;lt;Grid Repeat&amp;gt;">
            <rect class="cls-3" x="198.03" y="363.76" width="4.48" height="10.42" transform="translate(400.55 737.94) rotate(180)"/>
          </g>
          <g id="_Grid_Repeat_-88" data-name="&amp;lt;Grid Repeat&amp;gt;">
            <rect class="cls-3" x="162.02" y="363.76" width="4.48" height="10.42" transform="translate(328.51 737.94) rotate(180)"/>
          </g>
          <g id="_Grid_Repeat_-89" data-name="&amp;lt;Grid Repeat&amp;gt;">
            <rect class="cls-3" x="126" y="363.76" width="4.48" height="10.42" transform="translate(256.47 737.94) rotate(180)"/>
          </g>
          <g id="_Grid_Repeat_-90" data-name="&amp;lt;Grid Repeat&amp;gt;">
            <rect class="cls-3" x="89.98" y="363.76" width="4.48" height="10.42" transform="translate(184.44 737.94) rotate(180)"/>
          </g>
          <g id="_Grid_Repeat_-91" data-name="&amp;lt;Grid Repeat&amp;gt;">
            <rect class="cls-3" x="234.05" y="314.51" width="4.48" height="10.42" transform="translate(472.58 639.44) rotate(180)"/>
          </g>
          <g id="_Grid_Repeat_-92" data-name="&amp;lt;Grid Repeat&amp;gt;">
            <rect class="cls-3" x="198.03" y="314.51" width="4.48" height="10.42" transform="translate(400.55 639.44) rotate(180)"/>
          </g>
          <g id="_Grid_Repeat_-93" data-name="&amp;lt;Grid Repeat&amp;gt;">
            <rect class="cls-3" x="162.02" y="314.51" width="4.48" height="10.42" transform="translate(328.51 639.44) rotate(180)"/>
          </g>
          <g id="_Grid_Repeat_-94" data-name="&amp;lt;Grid Repeat&amp;gt;">
            <rect class="cls-3" x="126" y="314.51" width="4.48" height="10.42" transform="translate(256.47 639.44) rotate(180)"/>
          </g>
          <g id="_Grid_Repeat_-95" data-name="&amp;lt;Grid Repeat&amp;gt;">
            <rect class="cls-3" x="89.98" y="314.51" width="4.48" height="10.42" transform="translate(184.44 639.44) rotate(180)"/>
          </g>
          <g id="_Grid_Repeat_-96" data-name="&amp;lt;Grid Repeat&amp;gt;">
            <rect class="cls-3" x="234.05" y="265.25" width="4.48" height="10.42" transform="translate(472.58 540.93) rotate(180)"/>
          </g>
          <g id="_Grid_Repeat_-97" data-name="&amp;lt;Grid Repeat&amp;gt;">
            <rect class="cls-3" x="198.03" y="265.25" width="4.48" height="10.42" transform="translate(400.55 540.93) rotate(180)"/>
          </g>
          <g id="_Grid_Repeat_-98" data-name="&amp;lt;Grid Repeat&amp;gt;">
            <rect class="cls-3" x="162.02" y="265.25" width="4.48" height="10.42" transform="translate(328.51 540.93) rotate(180)"/>
          </g>
          <g id="_Grid_Repeat_-99" data-name="&amp;lt;Grid Repeat&amp;gt;">
            <rect class="cls-3" x="126" y="265.25" width="4.48" height="10.42" transform="translate(256.47 540.93) rotate(180)"/>
          </g>
          <g id="_Grid_Repeat_-100" data-name="&amp;lt;Grid Repeat&amp;gt;">
            <rect class="cls-3" x="89.98" y="265.25" width="4.48" height="10.42" transform="translate(184.44 540.93) rotate(180)"/>
          </g>
          <g id="_Grid_Repeat_-101" data-name="&amp;lt;Grid Repeat&amp;gt;">
            <rect class="cls-3" x="234.05" y="216" width="4.48" height="10.42" transform="translate(472.58 442.42) rotate(180)"/>
          </g>
          <g id="_Grid_Repeat_-102" data-name="&amp;lt;Grid Repeat&amp;gt;">
            <rect class="cls-3" x="198.03" y="216" width="4.48" height="10.42" transform="translate(400.55 442.42) rotate(180)"/>
          </g>
          <g id="_Grid_Repeat_-103" data-name="&amp;lt;Grid Repeat&amp;gt;">
            <rect class="cls-3" x="162.02" y="216" width="4.48" height="10.42" transform="translate(328.51 442.42) rotate(180)"/>
          </g>
          <g id="_Grid_Repeat_-104" data-name="&amp;lt;Grid Repeat&amp;gt;">
            <rect class="cls-3" x="126" y="216" width="4.48" height="10.42" transform="translate(256.47 442.42) rotate(180)"/>
          </g>
          <g id="_Grid_Repeat_-105" data-name="&amp;lt;Grid Repeat&amp;gt;">
            <rect class="cls-3" x="89.98" y="216" width="4.48" height="10.42" transform="translate(184.44 442.42) rotate(180)"/>
          </g>
        </g>
      </g>
    </g>
  </g>
</svg>