<?xml version="1.0" encoding="UTF-8"?>
<svg id="Layer_2" data-name="Layer 2" xmlns="http://www.w3.org/2000/svg" xmlns:xlink="http://www.w3.org/1999/xlink" viewBox="0 0 501 589">
  <defs>
    <style>
      .cls-1 {
        fill: #2e3192;
      }

      .cls-1, .cls-2, .cls-3, .cls-4 {
        stroke-width: 0px;
      }

      .cls-2 {
        fill: #0071bc;
      }

      .cls-3 {
        fill: #f2f2f2;
      }

      .cls-4 {
        fill: none;
      }

      .cls-5 {
        clip-path: url(#clippath);
      }
    </style>
    <clipPath id="clippath">
      <rect class="cls-4" x="122.33" y="56.39" width="348.06" height="532.61"/>
    </clipPath>
  </defs>
  <g id="Stain">
    <g>
      <rect class="cls-1" y="37.85" width="111.15" height="551.15" transform="translate(111.15 626.85) rotate(180)"/>
      <rect class="cls-1" x="82.16" y="18" width="331.84" height="21.6" transform="translate(496.16 57.6) rotate(180)"/>
      <rect class="cls-1" x="99" width="261" height="30.6" transform="translate(459 30.6) rotate(180)"/>
      <rect class="cls-2" x="109.54" y="37.85" width="391.46" height="551.15" transform="translate(610.54 626.85) rotate(180)"/>
      <g class="cls-5">
        <g>
          <g id="_Grid_Repeat_" data-name="&amp;lt;Grid Repeat&amp;gt;">
            <rect class="cls-3" x="432" y="588.83" width="38.39" height="7.21" transform="translate(902.39 1184.86) rotate(180)"/>
          </g>
          <g id="_Grid_Repeat_-2" data-name="&amp;lt;Grid Repeat&amp;gt;">
            <rect class="cls-3" x="377.5" y="588.83" width="38.39" height="7.21" transform="translate(793.39 1184.86) rotate(180)"/>
          </g>
          <g id="_Grid_Repeat_-3" data-name="&amp;lt;Grid Repeat&amp;gt;">
            <rect class="cls-3" x="323" y="588.83" width="38.39" height="7.21" transform="translate(684.39 1184.86) rotate(180)"/>
          </g>
          <g id="_Grid_Repeat_-4" data-name="&amp;lt;Grid Repeat&amp;gt;">
            <rect class="cls-3" x="268.5" y="588.83" width="38.39" height="7.21" transform="translate(575.38 1184.86) rotate(180)"/>
          </g>
          <g id="_Grid_Repeat_-5" data-name="&amp;lt;Grid Repeat&amp;gt;">
            <rect class="cls-3" x="213.99" y="588.83" width="38.39" height="7.21" transform="translate(466.38 1184.86) rotate(180)"/>
          </g>
          <g id="_Grid_Repeat_-6" data-name="&amp;lt;Grid Repeat&amp;gt;">
            <rect class="cls-3" x="159.49" y="588.83" width="38.39" height="7.21" transform="translate(357.38 1184.86) rotate(180)"/>
          </g>
          <g id="_Grid_Repeat_-7" data-name="&amp;lt;Grid Repeat&amp;gt;">
            <rect class="cls-3" x="104.99" y="588.83" width="38.39" height="7.21" transform="translate(248.37 1184.86) rotate(180)"/>
          </g>
          <g id="_Grid_Repeat_-8" data-name="&amp;lt;Grid Repeat&amp;gt;">
            <rect class="cls-3" x="432" y="556.08" width="38.39" height="7.21" transform="translate(902.39 1119.36) rotate(180)"/>
          </g>
          <g id="_Grid_Repeat_-9" data-name="&amp;lt;Grid Repeat&amp;gt;">
            <rect class="cls-3" x="377.5" y="556.08" width="38.39" height="7.21" transform="translate(793.39 1119.36) rotate(180)"/>
          </g>
          <g id="_Grid_Repeat_-10" data-name="&amp;lt;Grid Repeat&amp;gt;">
            <rect class="cls-3" x="323" y="556.08" width="38.39" height="7.21" transform="translate(684.39 1119.36) rotate(180)"/>
          </g>
          <g id="_Grid_Repeat_-11" data-name="&amp;lt;Grid Repeat&amp;gt;">
            <rect class="cls-3" x="268.5" y="556.08" width="38.39" height="7.21" transform="translate(575.38 1119.36) rotate(180)"/>
          </g>
          <g id="_Grid_Repeat_-12" data-name="&amp;lt;Grid Repeat&amp;gt;">
            <rect class="cls-3" x="213.99" y="556.08" width="38.39" height="7.21" transform="translate(466.38 1119.36) rotate(180)"/>
          </g>
          <g id="_Grid_Repeat_-13" data-name="&amp;lt;Grid Repeat&amp;gt;">
            <rect class="cls-3" x="159.49" y="556.08" width="38.39" height="7.21" transform="translate(357.38 1119.36) rotate(180)"/>
          </g>
          <g id="_Grid_Repeat_-14" data-name="&amp;lt;Grid Repeat&amp;gt;">
            <rect class="cls-3" x="104.99" y="556.08" width="38.39" height="7.21" transform="translate(248.37 1119.36) rotate(180)"/>
          </g>
          <g id="_Grid_Repeat_-15" data-name="&amp;lt;Grid Repeat&amp;gt;">
            <rect class="cls-3" x="432" y="523.32" width="38.39" height="7.21" transform="translate(902.39 1053.85) rotate(180)"/>
          </g>
          <g id="_Grid_Repeat_-16" data-name="&amp;lt;Grid Repeat&amp;gt;">
            <rect class="cls-3" x="377.5" y="523.32" width="38.39" height="7.21" transform="translate(793.39 1053.85) rotate(180)"/>
          </g>
          <g id="_Grid_Repeat_-17" data-name="&amp;lt;Grid Repeat&amp;gt;">
            <rect class="cls-3" x="323" y="523.32" width="38.39" height="7.21" transform="translate(684.39 1053.85) rotate(180)"/>
          </g>
          <g id="_Grid_Repeat_-18" data-name="&amp;lt;Grid Repeat&amp;gt;">
            <rect class="cls-3" x="268.5" y="523.32" width="38.39" height="7.21" transform="translate(575.38 1053.85) rotate(180)"/>
          </g>
          <g id="_Grid_Repeat_-19" data-name="&amp;lt;Grid Repeat&amp;gt;">
            <rect class="cls-3" x="213.99" y="523.32" width="38.39" height="7.21" transform="translate(466.38 1053.85) rotate(180)"/>
          </g>
          <g id="_Grid_Repeat_-20" data-name="&amp;lt;Grid Repeat&amp;gt;">
            <rect class="cls-3" x="159.49" y="523.32" width="38.39" height="7.21" transform="translate(357.38 1053.85) rotate(180)"/>
          </g>
          <g id="_Grid_Repeat_-21" data-name="&amp;lt;Grid Repeat&amp;gt;">
            <rect class="cls-3" x="104.99" y="523.32" width="38.39" height="7.21" transform="translate(248.37 1053.85) rotate(180)"/>
          </g>
          <g id="_Grid_Repeat_-22" data-name="&amp;lt;Grid Repeat&amp;gt;">
            <rect class="cls-3" x="432" y="490.57" width="38.39" height="7.21" transform="translate(902.39 988.35) rotate(180)"/>
          </g>
          <g id="_Grid_Repeat_-23" data-name="&amp;lt;Grid Repeat&amp;gt;">
            <rect class="cls-3" x="377.5" y="490.57" width="38.39" height="7.21" transform="translate(793.39 988.35) rotate(180)"/>
          </g>
          <g id="_Grid_Repeat_-24" data-name="&amp;lt;Grid Repeat&amp;gt;">
            <rect class="cls-3" x="323" y="490.57" width="38.39" height="7.21" transform="translate(684.39 988.35) rotate(180)"/>
          </g>
          <g id="_Grid_Repeat_-25" data-name="&amp;lt;Grid Repeat&amp;gt;">
            <rect class="cls-3" x="268.5" y="490.57" width="38.39" height="7.21" transform="translate(575.38 988.35) rotate(180)"/>
          </g>
          <g id="_Grid_Repeat_-26" data-name="&amp;lt;Grid Repeat&amp;gt;">
            <rect class="cls-3" x="213.99" y="490.57" width="38.39" height="7.21" transform="translate(466.38 988.35) rotate(180)"/>
          </g>
          <g id="_Grid_Repeat_-27" data-name="&amp;lt;Grid Repeat&amp;gt;">
            <rect class="cls-3" x="159.49" y="490.57" width="38.39" height="7.21" transform="translate(357.38 988.35) rotate(180)"/>
          </g>
          <g id="_Grid_Repeat_-28" data-name="&amp;lt;Grid Repeat&amp;gt;">
            <rect class="cls-3" x="104.99" y="490.57" width="38.39" height="7.21" transform="translate(248.37 988.35) rotate(180)"/>
          </g>
          <g id="_Grid_Repeat_-29" data-name="&amp;lt;Grid Repeat&amp;gt;">
            <rect class="cls-3" x="432" y="457.82" width="38.39" height="7.21" transform="translate(902.39 922.85) rotate(180)"/>
          </g>
          <g id="_Grid_Repeat_-30" data-name="&amp;lt;Grid Repeat&amp;gt;">
            <rect class="cls-3" x="377.5" y="457.82" width="38.39" height="7.21" transform="translate(793.39 922.85) rotate(180)"/>
          </g>
          <g id="_Grid_Repeat_-31" data-name="&amp;lt;Grid Repeat&amp;gt;">
            <rect class="cls-3" x="323" y="457.82" width="38.39" height="7.21" transform="translate(684.39 922.85) rotate(180)"/>
          </g>
          <g id="_Grid_Repeat_-32" data-name="&amp;lt;Grid Repeat&amp;gt;">
            <rect class="cls-3" x="268.5" y="457.82" width="38.39" height="7.21" transform="translate(575.38 922.85) rotate(180)"/>
          </g>
          <g id="_Grid_Repeat_-33" data-name="&amp;lt;Grid Repeat&amp;gt;">
            <rect class="cls-3" x="213.99" y="457.82" width="38.39" height="7.21" transform="translate(466.38 922.85) rotate(180)"/>
          </g>
          <g id="_Grid_Repeat_-34" data-name="&amp;lt;Grid Repeat&amp;gt;">
            <rect class="cls-3" x="159.49" y="457.82" width="38.39" height="7.21" transform="translate(357.38 922.85) rotate(180)"/>
          </g>
          <g id="_Grid_Repeat_-35" data-name="&amp;lt;Grid Repeat&amp;gt;">
            <rect class="cls-3" x="104.99" y="457.82" width="38.39" height="7.21" transform="translate(248.37 922.85) rotate(180)"/>
          </g>
          <g id="_Grid_Repeat_-36" data-name="&amp;lt;Grid Repeat&amp;gt;">
            <rect class="cls-3" x="432" y="425.07" width="38.39" height="7.21" transform="translate(902.39 857.34) rotate(180)"/>
          </g>
          <g id="_Grid_Repeat_-37" data-name="&amp;lt;Grid Repeat&amp;gt;">
            <rect class="cls-3" x="377.5" y="425.07" width="38.39" height="7.21" transform="translate(793.39 857.34) rotate(180)"/>
          </g>
          <g id="_Grid_Repeat_-38" data-name="&amp;lt;Grid Repeat&amp;gt;">
            <rect class="cls-3" x="323" y="425.07" width="38.39" height="7.21" transform="translate(684.39 857.34) rotate(180)"/>
          </g>
          <g id="_Grid_Repeat_-39" data-name="&amp;lt;Grid Repeat&amp;gt;">
            <rect class="cls-3" x="268.5" y="425.07" width="38.39" height="7.21" transform="translate(575.38 857.34) rotate(180)"/>
          </g>
          <g id="_Grid_Repeat_-40" data-name="&amp;lt;Grid Repeat&amp;gt;">
            <rect class="cls-3" x="213.99" y="425.07" width="38.39" height="7.21" transform="translate(466.38 857.34) rotate(180)"/>
          </g>
          <g id="_Grid_Repeat_-41" data-name="&amp;lt;Grid Repeat&amp;gt;">
            <rect class="cls-3" x="159.49" y="425.07" width="38.39" height="7.21" transform="translate(357.38 857.34) rotate(180)"/>
          </g>
          <g id="_Grid_Repeat_-42" data-name="&amp;lt;Grid Repeat&amp;gt;">
            <rect class="cls-3" x="104.99" y="425.07" width="38.39" height="7.21" transform="translate(248.37 857.34) rotate(180)"/>
          </g>
          <g id="_Grid_Repeat_-43" data-name="&amp;lt;Grid Repeat&amp;gt;">
            <rect class="cls-3" x="432" y="392.32" width="38.39" height="7.21" transform="translate(902.39 791.84) rotate(180)"/>
          </g>
          <g id="_Grid_Repeat_-44" data-name="&amp;lt;Grid Repeat&amp;gt;">
            <rect class="cls-3" x="377.5" y="392.32" width="38.39" height="7.21" transform="translate(793.39 791.84) rotate(180)"/>
          </g>
          <g id="_Grid_Repeat_-45" data-name="&amp;lt;Grid Repeat&amp;gt;">
            <rect class="cls-3" x="323" y="392.32" width="38.39" height="7.21" transform="translate(684.39 791.84) rotate(180)"/>
          </g>
          <g id="_Grid_Repeat_-46" data-name="&amp;lt;Grid Repeat&amp;gt;">
            <rect class="cls-3" x="268.5" y="392.32" width="38.39" height="7.21" transform="translate(575.38 791.84) rotate(180)"/>
          </g>
          <g id="_Grid_Repeat_-47" data-name="&amp;lt;Grid Repeat&amp;gt;">
            <rect class="cls-3" x="213.99" y="392.32" width="38.39" height="7.21" transform="translate(466.38 791.84) rotate(180)"/>
          </g>
          <g id="_Grid_Repeat_-48" data-name="&amp;lt;Grid Repeat&amp;gt;">
            <rect class="cls-3" x="159.49" y="392.32" width="38.39" height="7.21" transform="translate(357.38 791.84) rotate(180)"/>
          </g>
          <g id="_Grid_Repeat_-49" data-name="&amp;lt;Grid Repeat&amp;gt;">
            <rect class="cls-3" x="104.99" y="392.32" width="38.39" height="7.21" transform="translate(248.37 791.84) rotate(180)"/>
          </g>
          <g id="_Grid_Repeat_-50" data-name="&amp;lt;Grid Repeat&amp;gt;">
            <rect class="cls-3" x="432" y="359.56" width="38.39" height="7.21" transform="translate(902.39 726.33) rotate(180)"/>
          </g>
          <g id="_Grid_Repeat_-51" data-name="&amp;lt;Grid Repeat&amp;gt;">
            <rect class="cls-3" x="377.5" y="359.56" width="38.39" height="7.21" transform="translate(793.39 726.33) rotate(180)"/>
          </g>
          <g id="_Grid_Repeat_-52" data-name="&amp;lt;Grid Repeat&amp;gt;">
            <rect class="cls-3" x="323" y="359.56" width="38.39" height="7.21" transform="translate(684.39 726.33) rotate(180)"/>
          </g>
          <g id="_Grid_Repeat_-53" data-name="&amp;lt;Grid Repeat&amp;gt;">
            <rect class="cls-3" x="268.5" y="359.56" width="38.39" height="7.21" transform="translate(575.38 726.33) rotate(180)"/>
          </g>
          <g id="_Grid_Repeat_-54" data-name="&amp;lt;Grid Repeat&amp;gt;">
            <rect class="cls-3" x="213.99" y="359.56" width="38.39" height="7.21" transform="translate(466.38 726.33) rotate(180)"/>
          </g>
          <g id="_Grid_Repeat_-55" data-name="&amp;lt;Grid Repeat&amp;gt;">
            <rect class="cls-3" x="159.49" y="359.56" width="38.39" height="7.21" transform="translate(357.38 726.33) rotate(180)"/>
          </g>
          <g id="_Grid_Repeat_-56" data-name="&amp;lt;Grid Repeat&amp;gt;">
            <rect class="cls-3" x="104.99" y="359.56" width="38.39" height="7.21" transform="translate(248.37 726.33) rotate(180)"/>
          </g>
          <g id="_Grid_Repeat_-57" data-name="&amp;lt;Grid Repeat&amp;gt;">
            <rect class="cls-3" x="432" y="326.81" width="38.39" height="7.21" transform="translate(902.39 660.83) rotate(180)"/>
          </g>
          <g id="_Grid_Repeat_-58" data-name="&amp;lt;Grid Repeat&amp;gt;">
            <rect class="cls-3" x="377.5" y="326.81" width="38.39" height="7.21" transform="translate(793.39 660.83) rotate(180)"/>
          </g>
          <g id="_Grid_Repeat_-59" data-name="&amp;lt;Grid Repeat&amp;gt;">
            <rect class="cls-3" x="323" y="326.81" width="38.39" height="7.21" transform="translate(684.39 660.83) rotate(180)"/>
          </g>
          <g id="_Grid_Repeat_-60" data-name="&amp;lt;Grid Repeat&amp;gt;">
            <rect class="cls-3" x="268.5" y="326.81" width="38.39" height="7.21" transform="translate(575.38 660.83) rotate(180)"/>
          </g>
          <g id="_Grid_Repeat_-61" data-name="&amp;lt;Grid Repeat&amp;gt;">
            <rect class="cls-3" x="213.99" y="326.81" width="38.39" height="7.21" transform="translate(466.38 660.83) rotate(180)"/>
          </g>
          <g id="_Grid_Repeat_-62" data-name="&amp;lt;Grid Repeat&amp;gt;">
            <rect class="cls-3" x="159.49" y="326.81" width="38.39" height="7.21" transform="translate(357.38 660.83) rotate(180)"/>
          </g>
          <g id="_Grid_Repeat_-63" data-name="&amp;lt;Grid Repeat&amp;gt;">
            <rect class="cls-3" x="104.99" y="326.81" width="38.39" height="7.21" transform="translate(248.37 660.83) rotate(180)"/>
          </g>
          <g id="_Grid_Repeat_-64" data-name="&amp;lt;Grid Repeat&amp;gt;">
            <rect class="cls-3" x="432" y="294.06" width="38.39" height="7.21" transform="translate(902.39 595.32) rotate(180)"/>
          </g>
          <g id="_Grid_Repeat_-65" data-name="&amp;lt;Grid Repeat&amp;gt;">
            <rect class="cls-3" x="377.5" y="294.06" width="38.39" height="7.21" transform="translate(793.39 595.32) rotate(180)"/>
          </g>
          <g id="_Grid_Repeat_-66" data-name="&amp;lt;Grid Repeat&amp;gt;">
            <rect class="cls-3" x="323" y="294.06" width="38.39" height="7.21" transform="translate(684.39 595.32) rotate(180)"/>
          </g>
          <g id="_Grid_Repeat_-67" data-name="&amp;lt;Grid Repeat&amp;gt;">
            <rect class="cls-3" x="268.5" y="294.06" width="38.39" height="7.21" transform="translate(575.38 595.32) rotate(180)"/>
          </g>
          <g id="_Grid_Repeat_-68" data-name="&amp;lt;Grid Repeat&amp;gt;">
            <rect class="cls-3" x="213.99" y="294.06" width="38.39" height="7.21" transform="translate(466.38 595.32) rotate(180)"/>
          </g>
          <g id="_Grid_Repeat_-69" data-name="&amp;lt;Grid Repeat&amp;gt;">
            <rect class="cls-3" x="159.49" y="294.06" width="38.39" height="7.21" transform="translate(357.38 595.32) rotate(180)"/>
          </g>
          <g id="_Grid_Repeat_-70" data-name="&amp;lt;Grid Repeat&amp;gt;">
            <rect class="cls-3" x="104.99" y="294.06" width="38.39" height="7.21" transform="translate(248.37 595.32) rotate(180)"/>
          </g>
          <g id="_Grid_Repeat_-71" data-name="&amp;lt;Grid Repeat&amp;gt;">
            <rect class="cls-3" x="432" y="261.31" width="38.39" height="7.21" transform="translate(902.39 529.82) rotate(180)"/>
          </g>
          <g id="_Grid_Repeat_-72" data-name="&amp;lt;Grid Repeat&amp;gt;">
            <rect class="cls-3" x="377.5" y="261.31" width="38.39" height="7.21" transform="translate(793.39 529.82) rotate(180)"/>
          </g>
          <g id="_Grid_Repeat_-73" data-name="&amp;lt;Grid Repeat&amp;gt;">
            <rect class="cls-3" x="323" y="261.31" width="38.39" height="7.21" transform="translate(684.39 529.82) rotate(180)"/>
          </g>
          <g id="_Grid_Repeat_-74" data-name="&amp;lt;Grid Repeat&amp;gt;">
            <rect class="cls-3" x="268.5" y="261.31" width="38.39" height="7.21" transform="translate(575.38 529.82) rotate(180)"/>
          </g>
          <g id="_Grid_Repeat_-75" data-name="&amp;lt;Grid Repeat&amp;gt;">
            <rect class="cls-3" x="213.99" y="261.31" width="38.39" height="7.21" transform="translate(466.38 529.82) rotate(180)"/>
          </g>
          <g id="_Grid_Repeat_-76" data-name="&amp;lt;Grid Repeat&amp;gt;">
            <rect class="cls-3" x="159.49" y="261.31" width="38.39" height="7.21" transform="translate(357.38 529.82) rotate(180)"/>
          </g>
          <g id="_Grid_Repeat_-77" data-name="&amp;lt;Grid Repeat&amp;gt;">
            <rect class="cls-3" x="104.99" y="261.31" width="38.39" height="7.21" transform="translate(248.37 529.82) rotate(180)"/>
          </g>
          <g id="_Grid_Repeat_-78" data-name="&amp;lt;Grid Repeat&amp;gt;">
            <rect class="cls-3" x="432" y="228.55" width="38.39" height="7.21" transform="translate(902.39 464.32) rotate(180)"/>
          </g>
          <g id="_Grid_Repeat_-79" data-name="&amp;lt;Grid Repeat&amp;gt;">
            <rect class="cls-3" x="377.5" y="228.55" width="38.39" height="7.21" transform="translate(793.39 464.32) rotate(180)"/>
          </g>
          <g id="_Grid_Repeat_-80" data-name="&amp;lt;Grid Repeat&amp;gt;">
            <rect class="cls-3" x="323" y="228.55" width="38.39" height="7.21" transform="translate(684.39 464.32) rotate(180)"/>
          </g>
          <g id="_Grid_Repeat_-81" data-name="&amp;lt;Grid Repeat&amp;gt;">
            <rect class="cls-3" x="268.5" y="228.55" width="38.39" height="7.21" transform="translate(575.38 464.32) rotate(180)"/>
          </g>
          <g id="_Grid_Repeat_-82" data-name="&amp;lt;Grid Repeat&amp;gt;">
            <rect class="cls-3" x="213.99" y="228.55" width="38.39" height="7.21" transform="translate(466.38 464.32) rotate(180)"/>
          </g>
          <g id="_Grid_Repeat_-83" data-name="&amp;lt;Grid Repeat&amp;gt;">
            <rect class="cls-3" x="159.49" y="228.55" width="38.39" height="7.21" transform="translate(357.38 464.32) rotate(180)"/>
          </g>
          <g id="_Grid_Repeat_-84" data-name="&amp;lt;Grid Repeat&amp;gt;">
            <rect class="cls-3" x="104.99" y="228.55" width="38.39" height="7.21" transform="translate(248.37 464.32) rotate(180)"/>
          </g>
          <g id="_Grid_Repeat_-85" data-name="&amp;lt;Grid Repeat&amp;gt;">
            <rect class="cls-3" x="432" y="195.8" width="38.39" height="7.21" transform="translate(902.39 398.81) rotate(180)"/>
          </g>
          <g id="_Grid_Repeat_-86" data-name="&amp;lt;Grid Repeat&amp;gt;">
            <rect class="cls-3" x="377.5" y="195.8" width="38.39" height="7.21" transform="translate(793.39 398.81) rotate(180)"/>
          </g>
          <g id="_Grid_Repeat_-87" data-name="&amp;lt;Grid Repeat&amp;gt;">
            <rect class="cls-3" x="323" y="195.8" width="38.39" height="7.21" transform="translate(684.39 398.81) rotate(180)"/>
          </g>
          <g id="_Grid_Repeat_-88" data-name="&amp;lt;Grid Repeat&amp;gt;">
            <rect class="cls-3" x="268.5" y="195.8" width="38.39" height="7.21" transform="translate(575.38 398.81) rotate(180)"/>
          </g>
          <g id="_Grid_Repeat_-89" data-name="&amp;lt;Grid Repeat&amp;gt;">
            <rect class="cls-3" x="213.99" y="195.8" width="38.39" height="7.21" transform="translate(466.38 398.81) rotate(180)"/>
          </g>
          <g id="_Grid_Repeat_-90" data-name="&amp;lt;Grid Repeat&amp;gt;">
            <rect class="cls-3" x="159.49" y="195.8" width="38.39" height="7.21" transform="translate(357.38 398.81) rotate(180)"/>
          </g>
          <g id="_Grid_Repeat_-91" data-name="&amp;lt;Grid Repeat&amp;gt;">
            <rect class="cls-3" x="104.99" y="195.8" width="38.39" height="7.21" transform="translate(248.37 398.81) rotate(180)"/>
          </g>
          <g id="_Grid_Repeat_-92" data-name="&amp;lt;Grid Repeat&amp;gt;">
            <rect class="cls-3" x="432" y="163.05" width="38.39" height="7.21" transform="translate(902.39 333.31) rotate(180)"/>
          </g>
          <g id="_Grid_Repeat_-93" data-name="&amp;lt;Grid Repeat&amp;gt;">
            <rect class="cls-3" x="377.5" y="163.05" width="38.39" height="7.21" transform="translate(793.39 333.31) rotate(180)"/>
          </g>
          <g id="_Grid_Repeat_-94" data-name="&amp;lt;Grid Repeat&amp;gt;">
            <rect class="cls-3" x="323" y="163.05" width="38.39" height="7.21" transform="translate(684.39 333.31) rotate(180)"/>
          </g>
          <g id="_Grid_Repeat_-95" data-name="&amp;lt;Grid Repeat&amp;gt;">
            <rect class="cls-3" x="268.5" y="163.05" width="38.39" height="7.21" transform="translate(575.38 333.31) rotate(180)"/>
          </g>
          <g id="_Grid_Repeat_-96" data-name="&amp;lt;Grid Repeat&amp;gt;">
            <rect class="cls-3" x="213.99" y="163.05" width="38.39" height="7.21" transform="translate(466.38 333.31) rotate(180)"/>
          </g>
          <g id="_Grid_Repeat_-97" data-name="&amp;lt;Grid Repeat&amp;gt;">
            <rect class="cls-3" x="159.49" y="163.05" width="38.39" height="7.21" transform="translate(357.38 333.31) rotate(180)"/>
          </g>
          <g id="_Grid_Repeat_-98" data-name="&amp;lt;Grid Repeat&amp;gt;">
            <rect class="cls-3" x="104.99" y="163.05" width="38.39" height="7.21" transform="translate(248.37 333.31) rotate(180)"/>
          </g>
          <g id="_Grid_Repeat_-99" data-name="&amp;lt;Grid Repeat&amp;gt;">
            <rect class="cls-3" x="432" y="130.3" width="38.39" height="7.21" transform="translate(902.39 267.8) rotate(180)"/>
          </g>
          <g id="_Grid_Repeat_-100" data-name="&amp;lt;Grid Repeat&amp;gt;">
            <rect class="cls-3" x="377.5" y="130.3" width="38.39" height="7.21" transform="translate(793.39 267.8) rotate(180)"/>
          </g>
          <g id="_Grid_Repeat_-101" data-name="&amp;lt;Grid Repeat&amp;gt;">
            <rect class="cls-3" x="323" y="130.3" width="38.39" height="7.21" transform="translate(684.39 267.8) rotate(180)"/>
          </g>
          <g id="_Grid_Repeat_-102" data-name="&amp;lt;Grid Repeat&amp;gt;">
            <rect class="cls-3" x="268.5" y="130.3" width="38.39" height="7.21" transform="translate(575.38 267.8) rotate(180)"/>
          </g>
          <g id="_Grid_Repeat_-103" data-name="&amp;lt;Grid Repeat&amp;gt;">
            <rect class="cls-3" x="213.99" y="130.3" width="38.39" height="7.21" transform="translate(466.38 267.8) rotate(180)"/>
          </g>
          <g id="_Grid_Repeat_-104" data-name="&amp;lt;Grid Repeat&amp;gt;">
            <rect class="cls-3" x="159.49" y="130.3" width="38.39" height="7.21" transform="translate(357.38 267.8) rotate(180)"/>
          </g>
          <g id="_Grid_Repeat_-105" data-name="&amp;lt;Grid Repeat&amp;gt;">
            <rect class="cls-3" x="104.99" y="130.3" width="38.39" height="7.21" transform="translate(248.37 267.8) rotate(180)"/>
          </g>
          <g id="_Grid_Repeat_-106" data-name="&amp;lt;Grid Repeat&amp;gt;">
            <rect class="cls-3" x="432" y="97.55" width="38.39" height="7.21" transform="translate(902.39 202.3) rotate(180)"/>
          </g>
          <g id="_Grid_Repeat_-107" data-name="&amp;lt;Grid Repeat&amp;gt;">
            <rect class="cls-3" x="377.5" y="97.55" width="38.39" height="7.21" transform="translate(793.39 202.3) rotate(180)"/>
          </g>
          <g id="_Grid_Repeat_-108" data-name="&amp;lt;Grid Repeat&amp;gt;">
            <rect class="cls-3" x="323" y="97.55" width="38.39" height="7.21" transform="translate(684.39 202.3) rotate(180)"/>
          </g>
          <g id="_Grid_Repeat_-109" data-name="&amp;lt;Grid Repeat&amp;gt;">
            <rect class="cls-3" x="268.5" y="97.55" width="38.39" height="7.21" transform="translate(575.38 202.3) rotate(180)"/>
          </g>
          <g id="_Grid_Repeat_-110" data-name="&amp;lt;Grid Repeat&amp;gt;">
            <rect class="cls-3" x="213.99" y="97.55" width="38.39" height="7.21" transform="translate(466.38 202.3) rotate(180)"/>
          </g>
          <g id="_Grid_Repeat_-111" data-name="&amp;lt;Grid Repeat&amp;gt;">
            <rect class="cls-3" x="159.49" y="97.55" width="38.39" height="7.21" transform="translate(357.38 202.3) rotate(180)"/>
          </g>
          <g id="_Grid_Repeat_-112" data-name="&amp;lt;Grid Repeat&amp;gt;">
            <rect class="cls-3" x="104.99" y="97.55" width="38.39" height="7.21" transform="translate(248.37 202.3) rotate(180)"/>
          </g>
          <g id="_Grid_Repeat_-113" data-name="&amp;lt;Grid Repeat&amp;gt;">
            <rect class="cls-3" x="432" y="64.79" width="38.39" height="7.21" transform="translate(902.39 136.79) rotate(180)"/>
          </g>
          <g id="_Grid_Repeat_-114" data-name="&amp;lt;Grid Repeat&amp;gt;">
            <rect class="cls-3" x="377.5" y="64.79" width="38.39" height="7.21" transform="translate(793.39 136.79) rotate(180)"/>
          </g>
          <g id="_Grid_Repeat_-115" data-name="&amp;lt;Grid Repeat&amp;gt;">
            <rect class="cls-3" x="323" y="64.79" width="38.39" height="7.21" transform="translate(684.39 136.79) rotate(180)"/>
          </g>
          <g id="_Grid_Repeat_-116" data-name="&amp;lt;Grid Repeat&amp;gt;">
            <rect class="cls-3" x="268.5" y="64.79" width="38.39" height="7.21" transform="translate(575.38 136.79) rotate(180)"/>
          </g>
          <g id="_Grid_Repeat_-117" data-name="&amp;lt;Grid Repeat&amp;gt;">
            <rect class="cls-3" x="213.99" y="64.79" width="38.39" height="7.21" transform="translate(466.38 136.79) rotate(180)"/>
          </g>
          <g id="_Grid_Repeat_-118" data-name="&amp;lt;Grid Repeat&amp;gt;">
            <rect class="cls-3" x="159.49" y="64.79" width="38.39" height="7.21" transform="translate(357.38 136.79) rotate(180)"/>
          </g>
          <g id="_Grid_Repeat_-119" data-name="&amp;lt;Grid Repeat&amp;gt;">
            <rect class="cls-3" x="104.99" y="64.79" width="38.39" height="7.21" transform="translate(248.37 136.79) rotate(180)"/>
          </g>
        </g>
      </g>
    </g>
  </g>
</svg>