<?xml version="1.0" encoding="UTF-8"?>
<svg id="Layer_2" data-name="Layer 2" xmlns="http://www.w3.org/2000/svg" viewBox="0 0 258.16 148.5">
  <defs>
    <style>
      .cls-1 {
        fill: #fed10d;
      }

      .cls-1, .cls-2, .cls-3, .cls-4 {
        stroke-width: 0px;
      }

      .cls-2 {
        fill: #f58233;
      }

      .cls-3 {
        fill: #ec2027;
      }

      .cls-4 {
        fill: #f8a15c;
      }
    </style>
  </defs>
  <g id="assets">
    <rect class="cls-2" x="17.16" y="130.5" width="18" height="18"/>
    <rect class="cls-2" x="37.32" y="130.5" width="18" height="18"/>
    <rect class="cls-2" x="57.48" y="130.5" width="18" height="18"/>
    <rect class="cls-2" x="97.8" y="130.5" width="18" height="18"/>
    <rect class="cls-2" x="117.96" y="130.5" width="18" height="18"/>
    <rect class="cls-2" x="138.12" y="130.5" width="18" height="18"/>
    <rect class="cls-2" x="158.28" y="130.5" width="18" height="18"/>
    <rect class="cls-2" x="178.44" y="130.5" width="18" height="18"/>
    <rect class="cls-2" x="218.76" y="130.5" width="18" height="18"/>
    <path class="cls-2" d="M207.6,130.5c-4.97,0-9,4.03-9,9s4.03,9,9,9,9-4.03,9-9-4.03-9-9-9"/>
    <path class="cls-2" d="M207.6,109.25c-4.97,0-9,4.03-9,9s4.03,9,9,9,9-4.03,9-9-4.03-9-9-9"/>
    <path class="cls-2" d="M257.16,148.5h0v-18h-18v9s9,0,9,9h9Z"/>
    <path class="cls-1" d="M158.28,148.5h18c0-9.94-8.06-18-18-18v18Z"/>
    <polygon class="cls-2" points="91.3 130.5 91.3 135 95.8 135 95.8 144 91.3 144 91.3 148.5 82.3 148.5 82.3 144 77.8 144 77.8 135 82.3 135 82.3 130.5 91.3 130.5"/>
    <path class="cls-2" d="M9,130.5s0,9,9,9c0,0-9,0-9,9,0,0,0-9-9-9,0,0,9,0,9-9"/>
    <rect class="cls-2" x="239.16" y="69.75" width="18" height="18"/>
    <rect class="cls-2" x="240.16" y="6.24" width="18" height="18"/>
    <rect class="cls-2" x="240.16" y="26.58" width="18" height="18"/>
    <rect class="cls-2" x="218.76" y="48.16" width="18" height="18"/>
    <rect class="cls-2" x="218.76" y="90.61" width="18" height="16.72"/>
    <path class="cls-4" d="M257.16,57.16s-9,0-9,9c0,0,0-9-9-9,0,0,9,0,9-9,0,0,0,9,9,9"/>
    <path class="cls-4" d="M257.16,90.09h-18c0,9.94,8.06,18,18,18v-18Z"/>
    <path class="cls-4" d="M236.76,69.75h-18c0,9.94,8.06,18,18,18v-18Z"/>
    <path class="cls-1" d="M257.16,128.25h-18c0-9.94,8.06-18,18-18v18Z"/>
    <path class="cls-1" d="M218.76,127.49h18c0-9.94-8.06-18-18-18v18Z"/>
    <rect class="cls-3" x="233.02" width="7.49" height="7.49"/>
  </g>
</svg>