<?xml version="1.0" encoding="UTF-8"?>
<svg id="Layer_2" data-name="Layer 2" xmlns="http://www.w3.org/2000/svg" viewBox="0 0 906.61 1103.78">
  <defs>
    <style>
      .cls-1, .cls-2 {
        stroke-width: 0px;
      }

      .cls-1, .cls-3 {
        fill: #000;
      }

      .cls-2 {
        fill: #fff;
      }

      .cls-3 {
        stroke: #fff;
        stroke-miterlimit: 10;
        stroke-width: 3px;
      }
    </style>
  </defs>
  <g id="penguin">
    <g>
      <path class="cls-1" d="M852.39,796.54c-5.68,15.71-60.24,136.84-34.6,113.96,25.64-22.88,29.44-67.39,34.74-55.11,5.29,12.28,16.08,67.08,26.52,51.14,10.43-15.94-.62-72.38,7-71.8,7.62.58,9.83,39.97,17.79,33.92,7.96-6.05-1.64-58.6-23.55-78.08-21.91-19.48-22.96-7.69-27.9,5.97Z"/>
      <path class="cls-3" d="M52.09,452.24C-15.75,377.98-19.61,122.51,66.53,67.6c20.63-13.15-21.59,245.37,101.48,212.48,18.12-4.84,40.52-14.17,48.29-15.92s-65.85,295.74-164.21,188.09Z"/>
      <g>
        <path class="cls-2" d="M569.75,20.3c-97.73-14.41-281.24,108.35-395.56,310.48-62.19,109.96-259.06,546.31,20.86,674.55,138.04,63.24,265.3-57.83,380.88-53.81,109.54,3.81,258.95-101.87,277.38-115.11,20.88-15,34.77-64.71-25.73-59.05-162.44,15.2-116.18-201.33-263.58-264.92-94.24-40.66,42.63-227.42,74.08-291.76,30.82-63.05,33.09-185.43-68.34-200.38Z"/>
        <path class="cls-1" d="M567.58,34.99c-8.22-2-17.53-3.55-26.44-3.69-21.02.27-41.38,5.09-61.62,11.69-59.97,20.45-111.79,59.24-157.41,102.45-46.2,43.36-86.16,93.05-120.62,146.15-17.34,26.5-33.45,53.83-46.96,82.52-6.8,14.32-13.14,28.86-18.96,43.6-11.67,29.44-19.07,60.53-27.61,90.9-39.61,137.63-92.59,328.36,16.79,446.29,10.89,11.39,22.81,21.95,36.01,30.63,26.6,16.54,56.92,28.18,88.08,31.41,46.84,5.08,92.85-8,136.56-23.75,4.02-1.56,12.79-4.62,16.59-6.14,5.55-2.25,11.16-3.96,17.17-4.8,8.01-1.01,15.89-2.6,23.68-4.68,11.43-2.65,23.58-6.04,34.58-9.78,30.44-9.65,61.61-18.28,93.83-18.92,3.39,0,8.51,0,11.88-.11,3.77-.14,7.95-.36,11.71-.77,23.42-2.29,46.1-9.39,67.87-18.12,29.06-11.77,57.1-25.66,85.24-39.51,35.02-17.46,71.38-34.73,103.41-57.32,12.9-9.3,24.05-33.83,10.06-46.39-8.74-7.25-21.16-7.58-32.06-7.03-7.94.61-16.09.87-24.08.4-75.91-3.62-100.29-68.84-129.72-127.25-23.69-46.7-58.57-89.81-105.46-113.57-5.16-2.61-10.52-4.8-15.9-6.9-4.42-1.79-8.58-3.93-12.68-6.48-12.31-7.61-22.42-19.55-27.93-32.94-21.1-51.79,11.36-121.66,34.71-167.84,19.88-38.99,43.91-75.51,64.78-113.59,0,0,1.21-2.31,1.21-2.31,0,0,1.1-2.19,1.1-2.19.71-1.48,1.42-2.96,2.09-4.49,19.36-44.76,28.45-116.88-13.52-151.18-10.31-8.33-23.41-13.16-36.33-16.31h0ZM571.92,5.61c61.98,5.34,98.42,52.94,106.52,111.58,5.48,40.24-.38,81.66-18.07,118.27-26.7,51.33-60.92,102.79-84.18,155.57-8.46,19.27-16.5,39.7-19.4,60.3-1.9,15.31-1.18,30.69,12.91,39.05,3.09,1.91,6.5,3.3,9.69,5.05,27.62,14.1,50.98,36.11,66.58,62.84,21.14,35.79,30.65,75.39,46.64,112.98,24.06,59.12,52.6,108.37,124.57,104.54,7.89-.37,16.07-1.77,24.02-1.33,19.07.51,35.15,10.46,33.05,31.81-1.52,12.88-8.11,24.93-18.31,33.02-6.5,4.82-12.91,9.47-19.39,14.17-25.96,18.71-51.92,37.81-80.03,53.3-28.2,15.59-58.32,28.01-89.57,36.09-25.43,6.52-51.47,11.03-77.74,11.57-3.95.11-8.18-.03-12.11-.2-17.64-1.09-35.38.82-52.71,4.65-23.05,5.4-45.91,12.54-67.47,22.49-10.81,5.34-21.64,10.58-31.7,17.32-6.82,4.48-14.47,6.85-22.12,9.36-19.16,6.35-38.5,11.94-58.43,15.92-47.54,9.94-98.89,7.63-143.2-13.28-21.81-10.13-41.93-23.23-61.48-37.13C9.32,875.78,24.68,685.39,69.43,546.26c5.03-15.29,10.26-30.51,16.53-45.33,12.41-29.58,28.44-57.62,42.46-86.37,14.06-28.63,28.14-57.2,43.5-85.16,62.04-111.43,151.6-208.15,260.05-275.64,33-20.19,68.25-38.45,106.95-45.4,10.84-2.07,21.55-3.57,32.99-2.75h0Z"/>
      </g>
      <path class="cls-1" d="M530.63,450.93c24.28-13.86,133.95-16.35,155.85-66.01,21.9-49.66,130.72-136.26,101.38-73.51-29.34,62.75-57.91,256.36-119.95,262.86s-35.5-8.65-62.08-27.37c-22.41-15.78-88.47-88.39-75.2-95.97Z"/>
      <path class="cls-1" d="M299.71,1034.33c-18.14,17.01-217.01,7.73-167.38,18.91,49.63,11.18,118.49,3.77,106.65,12.23-11.85,8.46-82.75,30.67-53.94,32.82,28.81,2.15,93.57-26.66,98.73-20.67,5.16,5.99-44.31,21.93-30.27,25.78,14.04,3.85,74.88-22.45,83.18-46.13s-6.3-51.71-36.97-22.95Z"/>
      <path class="cls-1" d="M488.7,100.66c.68-42.91-21-31.34-37.81-37.94s-71.31-2.97-118.4-47.55c-10.24-9.69-52.69-17.24-67.87-14.66-15.18,2.58,123.67,96.82,133,113.44,23.09,41.13,90.47,25.82,91.09-13.29Z"/>
      <circle class="cls-1" cx="526.8" cy="129.56" r="10.25"/>
    </g>
  </g>
</svg>