<?xml version="1.0" encoding="UTF-8"?>
<svg id="Layer_2" data-name="Layer 2" xmlns="http://www.w3.org/2000/svg" viewBox="0 0 644.77 1151.3">
  <defs>
    <style>
      .cls-1 {
        fill: #000;
      }

      .cls-1, .cls-2 {
        stroke-width: 0px;
      }

      .cls-2 {
        fill: #fff;
      }
    </style>
  </defs>
  <g id="penguin">
    <g>
      <path class="cls-1" d="M264.23,1068.55c-16.26,3.85-147.48,24.54-114.3,33.46,33.18,8.92,72.51-12.27,65.14-1.12s-47.32,50.19-28.27,50.19c19.05,0,60.22-40.15,63.91-33.46s-28.06,30.12-18.64,33.46,48.14-33.46,52.44-62.46c4.3-29-6.14-23.42-20.28-20.08Z"/>
      <path class="cls-1" d="M459.23,1077.13c-16.26,3.26-147.48,20.77-114.3,28.32,33.18,7.55,72.51-10.39,65.14-.94-7.37,9.44-47.32,42.48-28.27,42.48,19.05,0,60.22-33.99,63.91-28.32s-28.06,25.49-18.64,28.32,48.14-28.32,52.44-52.87c4.3-24.55-6.14-19.83-20.28-16.99Z"/>
      <path class="cls-1" d="M471.1,274.17c18.5,18.5,197.5,332.5,171,360s-162.5-207.5-180-198,9-162,9-162Z"/>
      <g>
        <path class="cls-2" d="M196.1,1078.17c-102.5-12.5-108.5-459.5-90-567s89.5-270.5,90-306,5-138,50.5-173.5,118.64,5.66,144,27c50.5,42.5,51.44,183.55,63,198,36,45,72,378,81,441,6.89,48.26,62.5,377.5-72,387s-193.43,2.41-266.5-6.5Z"/>
        <path class="cls-1" d="M194.9,1088c-39.09-5.81-53.94-52.96-62.49-85.54-25.37-99.45-34.84-201.96-37.73-304.28-1.3-61.47-2.13-123.17,5.47-184.37,14.51-87.86,46.74-171.46,72.92-255.98,3.89-12.72,7.87-25.7,10.73-38.55,1.04-4.74,1.97-9.43,2.12-14.22,0-8.2.14-16.46.47-24.66,1.85-40.34,6.7-81.55,22.85-119.07C223.37,27.74,247.38,3.04,285.64.28c42.44-3.2,91.38,21.58,120.87,50.83,8.87,9.75,15.69,20.43,20.1,32.42,3.9,10.2,8.08,20.4,11.08,30.77,12.08,39.74,16.38,81.3,22.98,121.93.88,4.44,1.6,9.15,3.12,13.01.07.2.04.08.02.09.01.05-.08-.14-.16-.25-.01-.03-.34-.42-.13-.13,5.44,7.23,8.52,14.7,11.57,22.63,7.29,19.87,12.02,40.4,16.5,60.79,27.68,133.9,38.75,270.04,57.24,405.23,10.21,85.37,20.32,205.88-9.79,286.62-11.55,30.51-32.92,58.89-67.05,64.43-3.4.68-7.32.97-10.71,1.21-44.15,2.6-88.83,4.42-133.05,3.1-35.82-1.04-71.42-6.33-107.13-8.86-3.5-.46-6.93-.27-10.38.77-5.05,1.56-10.67,3.96-15.82,3.12h0ZM197.3,1068.34c5.2.39,10.06,4.11,14.59,6.8,3.1,1.85,6.4,2.76,9.89,3.17,31.8,5.28,64.26,6.43,96.44,6.57,48.98.7,98.37-1.45,147.2-5.69,32.58-3.54,52.04-30.22,62.45-59.17,6.85-18.73,10.66-38.47,13.17-58.24,5.6-46.88,4.1-94.23.35-141.26-4.04-54.14-13.91-107.78-20.99-161.57-14.72-107.48-28.37-215.55-51.97-321.39-4.59-19.38-9.4-38.72-16.47-57.1-2.41-6.04-5.17-12.24-8.99-17.04-4.44-6.8-5.69-15.07-7.29-22.51-8.3-45.82-12.61-93.3-30.99-136.21-2.47-5.82-6.16-10.94-9.48-15.86-3.68-5.58-7.41-10.51-11.95-14.65-8.41-7.25-18.36-12.96-28.24-18.21-28.34-14.28-68.7-30.18-97.94-13.26-8.95,5.32-16.93,14.43-22.96,25.19-3.1,5.48-5.67,11.2-7.96,17.07-13.72,37.09-18.06,77.22-19.76,116.64-.08,2.83-.22,5.8-.52,8.57-.63,4.71-1.65,9.19-2.78,13.68-3.51,13.62-7.91,26.58-12.41,39.75-22.39,64.18-47.33,127.53-65.82,192.91-7.24,25.98-13.83,52.09-16.72,78.95-8.34,80.99-7.56,162.82-3.27,244.06,3.19,54.2,8.64,108.44,19.06,161.74,6.53,32.87,17.39,65.46,35,93.98,8.98,13.99,21.17,30.76,38.35,33.11h0Z"/>
      </g>
      <path class="cls-1" d="M192.1,265.17c27,90,72.54-19.36,126-27,63-9,27,54,126,18,18.91-6.88,54.98,105.65-9,63-54-36-72,81-153,36-15.73-8.74-170.53-14.03-108,36,45,36-63.5,143.5-90,189s-27,180-81,243c-23.11,26.96,89.5-378.5,117-459s61.34-134.54,72-99Z"/>
      <circle class="cls-1" cx="273.1" cy="112.17" r="10.25"/>
      <circle class="cls-1" cx="346.1" cy="111.17" r="10.25"/>
      <path class="cls-1" d="M273.1,138.17c36-26,72-89-36-89-14.45,0,51.61-29.39,54-27,2.07,2.07,81.76,25.78,72,27-72,9-33.93,80-27,80,18,0,0,18-18,27-11.38,5.69-45-18-45-18Z"/>
    </g>
  </g>
</svg>