<?xml version="1.0" encoding="UTF-8"?>
<svg id="Layer_2" data-name="Layer 2" xmlns="http://www.w3.org/2000/svg" viewBox="0 0 494.34 1313.89">
  <defs>
    <style>
      .cls-1 {
        fill: #000;
      }

      .cls-1, .cls-2, .cls-3 {
        stroke-width: 0px;
      }

      .cls-2 {
        fill: #ff8927;
      }

      .cls-3 {
        fill: #fff;
      }
    </style>
  </defs>
  <g id="penguin">
    <g>
      <path class="cls-1" d="M121.93,434.15c-14.72,25.77-81.5,162.12-92.22,210.48-10.72,48.36-58.5,319.82,25.42,128.48,83.92-191.34,137.91-423.34,148.62-471.71,10.51-47.42-54.69,85.23-81.83,132.75Z"/>
      <path class="cls-1" d="M97.13,1261.97c-13.2,2.04-119.72,13.02-92.78,17.76,26.94,4.74,58.86-6.51,52.88-.59s-38.41,26.64-22.95,26.64,48.89-21.31,51.88-17.76-22.78,15.98-15.13,17.76,39.08-17.76,42.57-33.15c3.49-15.39-4.99-12.43-16.46-10.66Z"/>
      <path class="cls-1" d="M358.13,1269.97c-13.2,2.04-119.72,13.02-92.78,17.76,26.94,4.74,58.86-6.51,52.88-.59s-38.41,26.64-22.95,26.64,48.89-21.31,51.88-17.76-22.78,15.98-15.13,17.76,39.08-17.76,42.57-33.15c3.49-15.39-4.99-12.43-16.46-10.66Z"/>
      <g>
        <path class="cls-3" d="M309.31,147.79c-61.95,85.79-16.06,178.28,30.1,273.3s220.81,552.54,113.86,742.21c-106.95,189.67-143.34,86.49-215.13-19.38-92.86-136.95-90.01,90.79-135.99,105.22s-65.56-96.3-73.49-187.35C6.46,806.78,78.07,494.28,197.52,290.84c75.31-128.26,14.64-155.15,50.84-157.57,9.6-.64,60.94,14.53,60.94,14.53Z"/>
        <path class="cls-1" d="M311.2,147.15c-.43,1.98-1.21,4.43-2.25,6.38,0,0-.28.65-.28.65-2.2,5.1-4.32,10.32-6.19,15.51-29.36,77.8,6.47,156.96,40.52,227.28,27.02,54.4,48.2,111.59,67.68,168.98,51.18,154.77,131.94,452.71,45.8,599.38-19.97,32.71-53.14,86.66-88.92,101.03-23.94,9.65-44.26-4.15-59.89-21.59-20.06-22.55-35.12-48.86-52.49-73.42-8.59-12.26-17.32-24.66-26.79-36.2-7.07-8.45-14.57-16.55-23.42-22.93-12.17-8.63-22.65-9.91-32.39,2.48-10.92,14.29-16.39,32.2-22.35,49.15-8.71,24.95-15.08,51.7-29.2,74.6-3.4,5.15-7.8,10.47-13.59,13.52-6.04,3.02-13.14,3.73-19.75,2.06-31.93-8.4-44.35-72.56-50.39-100.98-49.14-277.35,8.65-599.01,146.34-844.27,2.71-4.73,8.46-14.91,11.31-19.63,9.49-16.06,18.05-32.77,24.92-50.07,5.52-13.72,8.07-28.65,8.53-43.3.29-10.85.27-21.23-1.23-31.81-.76-5.41-2.1-10.83-3.07-16.47-.75-4.81-1.12-9.56,1.11-14.74,1.78-4.65,6.84-8.72,11.02-10.29,3.66-1.55,6.71-1.96,10.32-2.53,7.67-.86,15.23.77,22.34,2.26,11.43,2.85,22.8,5.91,32.04,13.7,3.11,2.57,6.15,5.75,8.43,9.18.77.81-.99-.74,1.83,2.07h0ZM307.42,148.44c2.37,2.68.16,1,.48,1.68-7.33,3.22-15.87,4.33-23.64,3.82-11.47-1.09-22.97-4.28-34.01-6.82-.58-.13-1.25-.25-1.14-.32.04-.02.15-.05.12-.08h-.55c-.81-.05-3.17.12-3.52.02-.04-.07.3-.25.92-.83.62-.55,1.39-1.62,1.66-2.44.51-1.59-.03-1.4-.12-.12-.23,2.45-.07,4.68,0,7.39.31,7.83.4,16.12-.28,24.02-1.59,22.87-13.22,45.71-21.61,66.67-8.5,21.03-19.68,41.03-31.07,60.59-47.82,85.05-80.34,177.8-106.56,271.49-43.37,158.67-68.14,324.44-55.53,489.06,3.95,44.6,8.99,89.7,22.3,132.56,5.85,17.33,16.33,45.6,34.9,50.38,10.93,2.01,17.4-3.3,22.85-12.42,5.58-9.34,9.2-19.62,12.78-30.02,4.73-14.08,8.85-28.54,13.57-42.95,8.62-25.15,24.9-78.74,61.19-61.83,7.44,3.73,13.35,9.16,18.78,15.13,14.95,16.75,26.03,37.99,37.64,57.03,11.57,19.39,23.37,38.67,36.92,56.76,16.85,22.53,42.58,51.31,73.44,37.61,31.11-14.05,55.13-54.78,72.1-83.52,7.3-12.94,14.71-25.9,20.13-39.77,10.92-27.54,16.47-56.93,19.26-86.38,6.62-74.36-3.11-149.21-17.62-222.18-17.91-87.97-44.08-174.15-74.22-258.66-20.28-56.03-41.75-112.06-68.38-165.38-35.36-73.77-80.81-169.15-26.04-244.79,3.42-4.75,7.27-9.26,11.33-13.46,0,0,.5-.53.5-.53,1.12-.71,2.13-.82,3.42-1.71h0Z"/>
      </g>
      <path class="cls-1" d="M327,53.89c27,72-114.17,219.43-99,180,45-117-153-153-108-153,77.42,0,63-72,126-80,41.91-5.32,66.17,13.44,81,53Z"/>
      <path class="cls-1" d="M390.31,459.65c7.39,27.49,14.95,164.26,11.26,210s-36.25,298.31-64.76,102.99c-28.51-195.32-43.54-419.56-39.85-465.3,3.62-44.85,79.74,101.63,93.36,152.31Z"/>
      <path class="cls-3" d="M318,71.89c-18-18-137.13,22.42-63-27,27-18,7.73-36,18-36,45,0,56.76,74.76,45,63Z"/>
      <ellipse class="cls-1" cx="255.5" cy="58.89" rx="17.5" ry="5" transform="translate(-6.62 52.53) rotate(-11.59)"/>
      <path class="cls-2" d="M201,89.89c-18-9-90-22-117,5,54,0,63,4,72,13s45-18,45-18Z"/>
    </g>
  </g>
</svg>