<?xml version="1.0" encoding="UTF-8"?>
<svg id="Layer_2" data-name="Layer 2" xmlns="http://www.w3.org/2000/svg" viewBox="0 0 133.78 133.78">
  <defs>
    <style>
      .cls-1 {
        fill: #008bce;
        stroke-width: 0px;
      }
    </style>
  </defs>
  <g id="page_9" data-name="page 9">
    <g>
      <g id="_Radial_Repeat_" data-name="&amp;lt;Radial Repeat&amp;gt;">
        <polygon class="cls-1" points="50.61 18.39 55.51 63.93 43.68 64.13 47.08 18.45 50.61 18.39"/>
        <polygon class="cls-1" points="33.95 8.14 64.13 42.6 54.55 49.56 31.1 10.22 33.95 8.14"/>
      </g>
      <g id="_Radial_Repeat_-2" data-name="&amp;lt;Radial Repeat&amp;gt;">
        <polygon class="cls-1" points="82.23 18.08 59.42 57.81 49.73 51.01 79.34 16.05 82.23 18.08"/>
        <polygon class="cls-1" points="74.78 0 78.93 45.62 67.09 45.62 71.25 0 74.78 0"/>
      </g>
      <g id="_Radial_Repeat_-3" data-name="&amp;lt;Radial Repeat&amp;gt;">
        <polygon class="cls-1" points="107.99 36.42 66.19 55.15 62.35 43.96 106.84 33.08 107.99 36.42"/>
        <polygon class="cls-1" points="112.59 17.41 89.14 56.76 79.56 49.8 109.73 15.33 112.59 17.41"/>
      </g>
      <g id="_Radial_Repeat_-4" data-name="&amp;lt;Radial Repeat&amp;gt;">
        <polygon class="cls-1" points="118.05 66.39 73.22 56.98 76.69 45.67 119.09 63.02 118.05 66.39"/>
        <polygon class="cls-1" points="132.95 53.72 90.85 71.77 87.19 60.51 131.86 50.36 132.95 53.72"/>
      </g>
      <g id="_Radial_Repeat_-5" data-name="&amp;lt;Radial Repeat&amp;gt;">
        <polygon class="cls-1" points="108.57 96.56 77.84 62.6 87.3 55.48 111.4 94.44 108.57 96.56"/>
        <polygon class="cls-1" points="128.07 95.06 83.41 84.92 87.06 73.66 129.16 91.7 128.07 95.06"/>
      </g>
      <g id="_Radial_Repeat_-6" data-name="&amp;lt;Radial Repeat&amp;gt;">
        <polygon class="cls-1" points="83.18 115.39 78.27 69.85 90.11 69.66 86.71 115.34 83.18 115.39"/>
        <polygon class="cls-1" points="99.83 125.64 69.66 91.18 79.24 84.22 102.69 123.57 99.83 125.64"/>
      </g>
      <g id="_Radial_Repeat_-7" data-name="&amp;lt;Radial Repeat&amp;gt;">
        <polygon class="cls-1" points="51.56 115.7 74.36 75.98 84.05 82.77 54.45 117.73 51.56 115.7"/>
        <polygon class="cls-1" points="59.01 133.78 54.85 88.17 66.69 88.17 62.54 133.78 59.01 133.78"/>
      </g>
      <g id="_Radial_Repeat_-8" data-name="&amp;lt;Radial Repeat&amp;gt;">
        <polygon class="cls-1" points="25.8 97.37 67.59 78.63 71.44 89.83 26.94 100.71 25.8 97.37"/>
        <polygon class="cls-1" points="21.19 116.37 44.65 77.03 54.22 83.99 24.05 118.45 21.19 116.37"/>
      </g>
      <g id="_Radial_Repeat_-9" data-name="&amp;lt;Radial Repeat&amp;gt;">
        <polygon class="cls-1" points="15.73 67.39 60.56 76.8 57.09 88.12 14.7 70.77 15.73 67.39"/>
        <polygon class="cls-1" points=".84 80.06 42.94 62.02 46.6 73.28 1.93 83.42 .84 80.06"/>
      </g>
      <g id="_Radial_Repeat_-10" data-name="&amp;lt;Radial Repeat&amp;gt;">
        <polygon class="cls-1" points="25.21 37.23 55.95 71.19 46.49 78.3 22.39 39.35 25.21 37.23"/>
        <polygon class="cls-1" points="5.71 38.72 50.38 48.87 46.72 60.13 4.62 42.08 5.71 38.72"/>
      </g>
    </g>
  </g>
</svg>