<?xml version="1.0" encoding="UTF-8"?>
<svg id="Layer_2" data-name="Layer 2" xmlns="http://www.w3.org/2000/svg" xmlns:xlink="http://www.w3.org/1999/xlink" viewBox="0 0 2966.59 1111">
  <defs>
    <style>
      .cls-1 {
        fill: url(#linear-gradient);
        stroke-width: 0px;
      }
    </style>
    <linearGradient id="linear-gradient" x1="991.85" y1="1054.24" x2="936.05" y2="-70.44" gradientTransform="translate(2455.69) rotate(-180) scale(1 -1)" gradientUnits="userSpaceOnUse">
      <stop offset="0" stop-color="#fff"/>
      <stop offset="1" stop-color="#0071bc"/>
    </linearGradient>
  </defs>
  <g id="Stain">
    <path class="cls-1" d="M5.59,1111h2961V411.84s-63.13-396.13-243-385.15c-144,8.78-81.4,127.84-171,149.32-36,8.63,6.21-84.2-180-61.49-72,8.78-153.21,142.96-270,167.84-43.37,9.24,3.11-151.22-189-150.27-99,.49-27,149.32-270,162.74-66.71,3.68-18-57.34-270-74.9-197.92-13.8-291.43,149.97-495,42.29-71.9-38.03-144-147.7-270-52.75-70.64,53.23-150-103.89-306-112.52-44.59-2.47-168.28-38.3-198-70.27C-35.41-123.89,5.59,411.84,5.59,411.84v699.16Z"/>
  </g>
</svg>